# xmcd CD database file
#
# Track frame offsets:
#	150
#	38453
#	77573
#	114474
#	125696
#	151888
#	276240
#
# Disc length: 4447 seconds
#
# Revision: 4
# Processed by: cddbd v1.5.1PL0 Copyright (c) Steve Scherf et al.
# Submitted via: CDex 1.51
#
DISCID=50115d07
DTITLE=Jimi Hendrix - By Night - The Blues Project Outtakes
DYEAR=2004
DGENRE=Blues
TTITLE0=New Rising Sun (2) (aka M.L.K. 23.10.68)
TTITLE1=Country Blues (2) (straight mix) (BOG 23.01.70)
TTITLE2=Hear My Train A Comin' (52) (:blues outtake BOG 21.05.69)
TTITLE3=Belly Button Window (6) (:blues outtake 22.08.70)
TTITLE4=Things I used To Do (8) (+J.Winter+Stephen Stills 07.05.69)
TTITLE5=Villanova Junction Blues Jam (17) (:blues outtake BOG 23.01.70)
TTITLE6=3 Little Bears- South Saturn Delta -Jam 4 (+Mitch 08.05.68)
EXTD=YEAR: 2004
EXTT0=
EXTT1=
EXTT2=
EXTT3=
EXTT4=
EXTT5=
EXTT6=
PLAYORDER=
